<?xml version="1.0" encoding="utf-8"?>
<!-- Generator: Adobe Illustrator 19.0.0, SVG Export Plug-In . SVG Version: 6.00 Build 0)  -->
<svg version="1.1" id="layer" xmlns="http://www.w3.org/2000/svg" xmlns:xlink="http://www.w3.org/1999/xlink" x="0px" y="0px"
	 viewBox="-153 -46 652 652" style="enable-background:new -153 -46 652 652;" xml:space="preserve">
<style type="text/css">
	.st0{fill:#E20714;}
</style>
<path class="st0" d="M-37,276.4l-10,2.7c-0.7,0.2-1.4-0.2-1.6-0.9l-7.6-28.8c-0.2-0.7-0.9-1.1-1.6-0.9l-3.8,0.9
	c-0.7,0.1-1.1,0.8-1,1.5c0,0,0,0,0,0l5.9,22.6c-0.4,0.1-3.1,0.7-3.5,0.8l-5.7-20.7c-0.5-1.7-2.1-3-4-3H-81c-1.5,0-2.9,0.8-3.7,2.1
	c0,0-6.1,10.8-7.9,14h-18c-1.5,0-2.9,0.8-3.6,2l-4.2,6.9c-0.5,0.8-0.7,1.7-0.5,2.6l0.8,5.2c0.1,0.8,0.5,1.5,1,2.1
	c-0.2,0.6-0.3,1.2-0.4,1.8c-0.2,2.2,0.5,4.5,2.1,6.1c1.6,1.6,3.7,2.5,6.1,2.5c4.8,0,8.8-3.6,9.3-8.1c0-0.3,0-0.5,0-0.8
	c0-0.1,0-0.2,0-0.3h15.3c0.4,2,1.4,3.8,2.9,5.4c2.3,2.4,5.5,3.7,9,3.7c7.1,0,13.1-5.3,13.8-12c0.1-0.6,0.1-1.1,0.1-1.6l4.2-1
	l1.2,4.4c0.2,0.7,0.9,1.1,1.6,0.9l12.9-3.4c0.7-0.2,1.4-1,1.5-1.7l1.5-4C-35.8,276.7-36.3,276.2-37,276.4 M-66.9,283.1
	c-0.3,2.7-2.9,5-5.8,5c-1.2,0-2.3-0.4-3.1-1.2c-0.8-0.8-1.1-1.9-1-3.1c0.3-2.7,2.9-5,5.8-5c1.2,0,2.3,0.4,3.1,1.2
	C-67.1,280.9-66.8,282-66.9,283.1 M-83.5,278.8h-26.8c0-0.2-0.1-0.3-0.1-0.5l2.2-3.7h18.1c1.5,0,2.9-0.8,3.7-2.1
	c0,0,6.1-10.8,7.9-14h5.5l3.5,12.6c-0.5,0-0.9-0.1-1.4-0.1C-76.4,271.1-81.3,274.3-83.5,278.8 M-106,287.3c-0.1,1.5-1.6,2.7-3.1,2.7
	c-0.8,0-1.3-0.3-1.6-0.6c-0.4-0.4-0.6-1-0.5-1.6c0.1-1.5,1.6-2.7,3.1-2.7c0.8,0,1.3,0.3,1.6,0.6C-106.1,286.2-106,286.7-106,287.3
	 M-20,315H1.4l8.7-56.4l0.5,56.4h25.1l17.7-55.5L44.8,315h24.6l12.7-82.4H44.6l-15.3,47.7l0.8-47.7H-7.2L-20,315z"/>
<path class="st0" d="M119,281.3h-11.2l11.2-29.1L119,281.3L119,281.3z M149.2,315l-7.4-82.4h-35.7L69.4,315h26.7l5.2-13h19.2v13
	H149.2z M155.6,315h21.9l7.8-49.2l7.5,49.2h32.8l13-82.4h-22.4l-7.7,48.5l-6.8-48.5h-33L155.6,315z M232.2,315h26.2l12.1-82.4h-26.2
	L232.2,315z M468.3,232.6l-8.9,59.8c0-0.1-1.9,25.7-37.3,25.7c-29.9,0-27.7-18.5-26.7-25.8l9-59.8l27,0l-8.5,56.4c-0.3,2-1,7,4,7
	s5.8-5,6.1-7l8.4-56.4L468.3,232.6 M363.6,289c-0.3,2-1,7-6,7c-5,0-4.3-5-4-7l4.2-28c0.4-2.6,1-7,6-7c5,0,4.4,4.4,4,7L363.6,289
	L363.6,289z M386.6,236.4c-6.6-4.6-14.6-3.8-25.9-3.8H277l-3.3,21.4h14.2l-9.3,62.9h26.9l9.2-62.8h17.6l-5.1,34.5
	c0,0-5.7,29.6,26,29.6c34,0,36.3-26,36.3-26l5.2-34.5C394.7,257.6,397.3,244,386.6,236.4z M-87,232.6h-30c-0.4,0-0.7,0.3-0.7,0.6
	l-4.3,27.9C-115.5,247.2-102.2,236.4-87,232.6 M-131.7,320.7c0,0.2,0,0.4,0.2,0.5l0,0c0.1,0.1,0.3,0.2,0.4,0.2h46
	c25.1,0,48.2-20.3,51.9-45.4l6.9-45.9c0-0.2,0-0.3-0.1-0.4c0,0,0,0,0,0c0,0,0,0,0,0l0,0c-0.1-0.1-0.3-0.2-0.4-0.2h-35.6
	c0.8,0.2,1.6,0.5,2.4,0.8c16.8,6.4,27.8,24.4,25.2,44.2c0,0.2-0.1,0.4-0.1,0.7c-3.1,21.5-20.7,39.4-41.5,43.8
	c-2.8,0.5-5.6,0.8-8.5,0.8h-9c-1.8,0-3.5-0.3-5.2-0.7c-14.6-4.4-25-16.4-27.4-31.7L-131.7,320.7z"/>
</svg>
