<?xml version="1.0" encoding="utf-8"?>
<!-- Generator: Adobe Illustrator 19.0.0, SVG Export Plug-In . SVG Version: 6.00 Build 0)  -->
<svg version="1.1" id="layer" xmlns="http://www.w3.org/2000/svg" xmlns:xlink="http://www.w3.org/1999/xlink" x="0px" y="0px"
	 viewBox="-153 -46 652 652" style="enable-background:new -153 -46 652 652;" xml:space="preserve">
<style type="text/css">
	.st0{fill:#E40521;}
</style>
<g>
	<path class="st0" d="M407.8,201.6c5.3-1.1,8.4-2.8,11.2-7c2.9-4.3,2.7-8.7-0.1-10.6c-3.6-2.4-9-2.3-17.7-2.3h-22.8l-7.5,21h17.6
		C396,202.7,405,202.2,407.8,201.6 M-118.2,260.2c4.8-8.1,18.5-21.7,34.6-21.7h46.3c14,0,16.4-4.5,17.2-8.3c1.2-6-6.1-6.3-11.2-6.7
		c-7.8-0.6-26.8-1.5-34.3-2.1c-19.2-1.7-32.1-15.6-29.1-32.3c3.1-17.9,23.1-32.5,44.5-32.5h267.3c16.1,0,32.2,8.7,39.9,21.6
		l13.8,23.5l33.9-29.7c16.9-13.8,37.1-15.3,48.3-15.3h50.7c34.6,0,53,11.6,52,34.3c-0.7,18.6-16,29.9-41.9,31.6l30.4,34.9
		c4.6,5.2,0.4,6.1-9.8,6.3l-14.8,0.1c-5.8-0.2-11-1.4-15.2-6.2l-29.9-35h-10.7l-5.6,15.7c-7.3,20.3-26.9,26.6-43.4,28.4
		c-2,0.2-3.5-0.5-2.4-3.2l13.5-37.6l15.2-42.4l0.1-0.5c0-0.7-0.6-1.3-1.4-1.3l-0.8,0.3l-54.7,45.8l-3.8,10.6
		c-7.2,20.1-27.1,26.6-43.5,28.3c-2,0.2-3.5-0.5-2.4-3.2l13.2-36.8l-24-42.2c-1-1.7-2.6-2.7-5.5-2.7l-56.3,0l-5.7,15.9h52.8
		c1.1,0,2.2,1,2.2,2.2l-0.3,1c-3.6,6.9-18.2,21.6-35,21.6l-28.8,0l-5.7,16h39.7l35.6,0c1.1,0,2.1,1.1,2.1,2.4l-0.3,1
		c-3.6,6.9-18.2,21.7-35,21.7h-76.1c-5.1,0-7.2-3.3-5.9-6.9l26.9-75.1H91.2l-19.9,56.6c-7.2,20-27.1,26.6-43.5,28.3
		c-2,0.2-3.5-0.5-2.4-3.2l29.3-81.7h-100c-10.7,0-14.5,2.8-15.5,7.9c-1,4.9,3.4,6.1,8,6.7c9.2,1.1,31.5,2.4,38.9,3.1
		c22.7,2.2,30.6,15.6,27.8,32c-3.1,17.8-22.7,32.3-43.7,32.3h-86.4c-1.2,0-2.2-1.1-2.2-2.4L-118.2,260.2z"/>
	<path class="st0" d="M448.6,306v-23.3h-4.3l0.5,16.4l-10.3-16.4h-3.9V306h4.3l-0.3-16.3l10.2,16.3H448.6 M427.2,306v-3.9h-13.1
		v-6.2h11.2v-3.8h-11.2v-5.5h12.3v-3.9h-16.6V306H427.2z M401.4,290c0,1.9-1.1,2.7-1.8,3.1c-1.1,0.6-2.6,0.6-5.2,0.6h-1.5v-7.3h3.5
		c1.9,0,2.8,0.2,3.5,0.7C401.3,288.1,401.4,289.5,401.4,290 M406.4,306l-5.2-9.5c2.7-0.8,3.8-2.8,4.2-3.8c0.4-1.1,0.4-2.2,0.4-2.6
		c0-0.8-0.1-2.8-1.4-4.6c-2.1-2.7-5.2-2.8-6.3-2.8h-9.5V306h4.3v-8.6h3.9l4.6,8.6H406.4z M380,294.8c-0.1,4.4-2.3,6.4-4.1,7.2
		c-1.1,0.5-2.2,0.6-2.7,0.6c-0.6,0-2-0.1-3.4-1c-3.3-2.2-3.3-6.4-3.3-7.3c0-4.4,2-6.5,3.7-7.4c0.5-0.2,1.5-0.7,3-0.7
		c2.3,0,4.2,1.1,5.4,3.1C379.7,290.8,380.1,292.9,380,294.8 M384.4,294.3c0-4.5-1.7-7.2-2.9-8.5c-1.1-1.3-3.8-3.7-8.3-3.7
		c-5,0-9,3.1-10.5,7.8c-0.7,2-0.7,3.8-0.7,4.5c0,3.2,0.9,6.1,3.1,8.6c2.2,2.5,4.7,3.6,8,3.6c2,0,3.3-0.4,4.1-0.7
		c2.1-0.7,3.4-2.1,4-2.7C384.2,299.9,384.4,295.8,384.4,294.3 M361.2,286.6v-3.9h-17.1v3.9h6.3V306h4.3v-19.4H361.2z M343.3,306
		l-8.1-14.5l7.6-8.8h-5.1l-9.3,10.7v-10.7H324V306h4.3v-6.6l3.8-4.3l6.2,11H343.3z M313.8,297.6h-6.4l3.2-10.7L313.8,297.6z
		 M321,306l-7.9-23.3h-4.9l-7.9,23.3h4.7l1.4-4.6h8.7l1.4,4.6H321z M294.2,290c0,1.9-1.1,2.7-1.8,3.1c-1.1,0.6-2.6,0.6-5.2,0.6h-1.6
		v-7.3h3.5c1.9,0,2.7,0.2,3.5,0.7C294.1,288.1,294.2,289.5,294.2,290 M299.2,306l-5.2-9.5c2.7-0.8,3.8-2.8,4.2-3.8
		c0.4-1.1,0.4-2.2,0.4-2.6c0-0.8-0.1-2.8-1.4-4.6c-2.1-2.7-5.2-2.8-6.3-2.8h-9.5V306h4.3v-8.6h3.9l4.6,8.6H299.2z M278,286.6v-3.9
		h-17.1v3.9h6.3V306h4.4v-19.4H278z"/>
	<path d="M-131.3,328.7h7.4l3.4,11.3c0.1,0.3,0.2,0.7,0.3,1.1c0.1,0.4,0.2,0.8,0.4,1.3c1.3,4.1,2.1,7.5,2.6,10.3
		c0.4-2.8,0.7-4.7,1-5.8l1.1-4.6l0.4-1.8l2.9-11.7h7.3l-9,29.5v22.3h-7v-22.3L-131.3,328.7"/>
	<path d="M-78.8,363.4c0,11.7-3.6,17.6-10.9,17.6c-7.3,0-10.9-6-10.9-17.9c0-12,3.6-17.9,10.9-17.9c1.9,0,3.5,0.4,4.9,1.1
		c1.4,0.7,2.5,1.8,3.4,3.3c0.9,1.5,1.6,3.4,2,5.7C-79,357.5-78.8,360.2-78.8,363.4 M-85.4,363.2c0-4.6-0.3-7.7-0.9-9.5
		c-0.6-1.8-1.7-2.7-3.2-2.7c-1.5,0-2.6,0.9-3.3,2.7c-0.6,1.8-0.9,4.9-0.9,9.4c0,4.4,0.3,7.6,0.9,9.3c0.6,1.8,1.7,2.7,3.3,2.7
		c1.5,0,2.6-0.9,3.2-2.6C-85.7,370.7-85.4,367.7-85.4,363.2"/>
	<path d="M-68.7,345.7h6.4V369c0,2.1,0.4,3.7,1,4.6c0.6,0.9,1.6,1.4,3,1.4c1.5,0,2.5-0.4,3.1-1.2c0.6-0.8,0.9-2.3,0.9-4.4v-23.6h6.4
		v20.8c0,4.9-0.4,8.1-1.1,9.7c-1.5,3.2-4.6,4.8-9.3,4.8c-3.7,0-6.4-0.9-7.9-2.8c-1.6-1.9-2.3-5.1-2.3-9.5V345.7"/>
	<path d="M-36.6,345.7h6.4v4.3c1.1-1.8,2.2-3.1,3.3-3.9c1.1-0.7,2.5-1.2,4.3-1.3v6.7c-0.4-0.1-0.8-0.1-1.1-0.1
		c-2.3,0-3.9,0.6-4.9,1.8c-1,1.2-1.4,3.2-1.4,6.1v21h-6.4V345.7"/>
	<path d="M4.2,394.7v-49h6.4v4.5c0.9-1.9,1.8-3.2,2.8-4c0.9-0.7,2.2-1.1,3.7-1.1c2.9,0,5,1.5,6.3,4.4c1.3,3,2,7.6,2,13.9
		c0,6.2-0.7,10.6-2,13.3c-1.3,2.8-3.5,4.2-6.5,4.2c-1.4,0-2.6-0.3-3.5-1c-0.4-0.3-0.9-0.8-1.3-1.3c-0.4-0.6-0.9-1.3-1.3-2.1v18.1
		H4.2 M18.7,363.3c0-4.7-0.3-7.9-0.9-9.6c-0.6-1.8-1.7-2.7-3.3-2.7c-1.5,0-2.5,0.9-3.2,2.8c-0.6,1.7-0.9,4.8-0.9,9.3
		c0,4.5,0.3,7.6,0.9,9.3c0.6,1.9,1.7,2.8,3.2,2.8c1.5,0,2.6-0.9,3.3-2.7C18.4,370.9,18.7,367.8,18.7,363.3"/>
	<path d="M55.2,345.7v34.7h-6.4V376c-0.9,1.9-1.8,3.2-2.8,3.9c-0.9,0.7-2.1,1.1-3.6,1.1c-2.9,0-5-1.5-6.3-4.4c-1.3-3-2-7.6-2-13.9
		c0-6,0.7-10.4,2-13.3c1.3-2.8,3.5-4.2,6.3-4.2c2.6,0,4.8,1.5,6.4,4.5v-3.9H55.2 M40.7,362.9c0,4.6,0.3,7.7,0.9,9.6
		c0.6,1.8,1.7,2.7,3.3,2.7c1.4,0,2.5-0.9,3.1-2.8c0.6-2,1-5.1,1-9.3c0-4.2-0.3-7.3-1-9.3c-0.6-1.9-1.7-2.8-3.1-2.8
		c-1.5,0-2.6,0.9-3.3,2.7C41.1,355.3,40.7,358.4,40.7,362.9"/>
	<path d="M66.6,345.7H73v4.3c1.1-1.8,2.2-3.1,3.3-3.9c1.1-0.7,2.5-1.2,4.3-1.3v6.7c-0.4-0.1-0.8-0.1-1.1-0.1c-2.3,0-3.9,0.6-4.9,1.8
		c-1,1.2-1.4,3.2-1.4,6.1v21h-6.4V345.7"/>
	<polygon points="91.3,336 97.7,336 97.7,345.7 101.2,345.7 101.2,350.8 97.7,350.8 97.7,380.5 91.3,380.5 91.3,350.8 87.8,350.8 
		87.8,345.7 91.3,345.7 	"/>
	<path d="M109.9,345.7h6.4v4c1.8-3,4.2-4.6,7.1-4.6c2.8,0,4.8,1.1,6,3.3c0.7,1.3,1,3.7,1,7.3v24.7h-6.4l0-23.2c0-2.4-0.3-4-0.8-5
		c-0.6-1-1.5-1.5-2.9-1.5c-0.7,0-1.4,0.1-1.9,0.4c-0.5,0.3-0.9,0.7-1.2,1.2c-0.3,0.6-0.5,1.3-0.7,2.2s-0.2,2-0.2,3.4v22.4h-6.4
		V345.7"/>
	<path d="M155.3,368.8h6c-0.5,8.2-3.8,12.2-10.1,12.2c-1.9,0-3.5-0.3-4.8-1c-1.3-0.7-2.4-1.8-3.3-3.2c-0.9-1.5-1.5-3.3-1.9-5.5
		c-0.4-2.2-0.6-4.9-0.6-8c0-6.1,0.9-10.7,2.6-13.6c1.7-3,4.4-4.4,7.9-4.4c7,0,10.4,6.1,10.4,18.4v0.8h-14.7c0,7.4,1.5,11.1,4.4,11.1
		C154,375.5,155.3,373.3,155.3,368.8 M155,359.7c-0.3-3.6-0.7-6-1.2-7.2c-0.6-1.3-1.5-1.9-2.8-1.9c-1.3,0-2.3,0.6-2.8,1.9
		c-0.6,1.1-1,3.5-1.2,7.2H155z"/>
	<path d="M171.3,345.7h6.4v4.3c1.1-1.8,2.2-3.1,3.3-3.9c1.1-0.7,2.5-1.2,4.3-1.3v6.7c-0.4-0.1-0.8-0.1-1.1-0.1
		c-2.3,0-3.9,0.6-4.9,1.8c-1,1.2-1.4,3.2-1.4,6.1v21h-6.4V345.7"/>
	<polygon points="212.9,336 219.3,336 219.3,345.7 222.8,345.7 222.8,350.8 219.3,350.8 219.3,380.5 212.9,380.5 212.9,350.8 
		209.4,350.8 209.4,345.7 212.9,345.7 	"/>
	<path d="M251.9,363.4c0,11.7-3.6,17.6-10.9,17.6c-7.3,0-10.9-6-10.9-17.9c0-12,3.6-17.9,10.9-17.9c1.9,0,3.5,0.4,4.9,1.1
		c1.4,0.7,2.5,1.8,3.4,3.3c0.9,1.5,1.6,3.4,2,5.7C251.7,357.5,251.9,360.2,251.9,363.4 M245.3,363.2c0-4.6-0.3-7.7-0.9-9.5
		c-0.6-1.8-1.7-2.7-3.2-2.7c-1.5,0-2.6,0.9-3.3,2.7c-0.6,1.8-0.9,4.9-0.9,9.4c0,4.4,0.3,7.6,0.9,9.3c0.6,1.8,1.7,2.7,3.3,2.7
		c1.5,0,2.6-0.9,3.2-2.6C244.9,370.7,245.3,367.7,245.3,363.2"/>
	<path d="M280.3,345.7h6.4v4.3c1.1-1.8,2.2-3.1,3.3-3.9c1.1-0.7,2.5-1.2,4.3-1.3v6.7c-0.4-0.1-0.8-0.1-1.1-0.1
		c-2.3,0-3.9,0.6-4.9,1.8c-1,1.2-1.4,3.2-1.4,6.1v21h-6.4V345.7"/>
	<path d="M316.4,368.8h6c-0.5,8.2-3.8,12.2-10.1,12.2c-1.9,0-3.4-0.3-4.8-1c-1.3-0.7-2.4-1.8-3.3-3.2c-0.9-1.5-1.5-3.3-1.9-5.5
		c-0.4-2.2-0.6-4.9-0.6-8c0-6.1,0.9-10.7,2.6-13.6c1.7-3,4.4-4.4,7.9-4.4c7,0,10.4,6.1,10.4,18.4v0.8H308c0,7.4,1.5,11.1,4.4,11.1
		C315.1,375.5,316.4,373.3,316.4,368.8 M316.1,359.7c-0.3-3.6-0.7-6-1.2-7.2c-0.6-1.3-1.5-1.9-2.8-1.9c-1.3,0-2.3,0.6-2.8,1.9
		c-0.6,1.1-1,3.5-1.2,7.2H316.1z"/>
	<rect x="332.5" y="323.5" width="6.4" height="57"/>
	<polygon points="347.3,345.7 354.6,345.7 359.7,370 365.6,345.7 372.1,345.7 358,394.7 351.2,394.7 356.5,377.7 	"/>
	<path d="M419,363.4c0,11.7-3.6,17.6-10.9,17.6c-7.3,0-10.9-6-10.9-17.9c0-12,3.6-17.9,10.9-17.9c1.9,0,3.5,0.4,4.9,1.1
		c1.4,0.7,2.5,1.8,3.4,3.3c0.9,1.5,1.6,3.4,2,5.7C418.8,357.5,419,360.2,419,363.4 M412.3,363.2c0-4.6-0.3-7.7-0.9-9.5
		c-0.6-1.8-1.7-2.7-3.2-2.7c-1.5,0-2.6,0.9-3.3,2.7c-0.6,1.8-0.9,4.9-0.9,9.4c0,4.4,0.3,7.6,0.9,9.3c0.6,1.8,1.7,2.7,3.3,2.7
		c1.5,0,2.6-0.9,3.2-2.6C412,370.7,412.3,367.7,412.3,363.2"/>
	<path d="M429.1,345.7h6.4v4c1.8-3,4.2-4.6,7.1-4.6c2.8,0,4.8,1.1,6,3.3c0.7,1.3,1,3.7,1,7.3v24.7h-6.4l0-23.2c0-2.4-0.3-4-0.8-5
		c-0.6-1-1.5-1.5-2.9-1.5c-0.7,0-1.4,0.1-1.9,0.4c-0.5,0.3-0.9,0.7-1.2,1.2c-0.3,0.6-0.5,1.3-0.7,2.2c-0.1,0.9-0.2,2-0.2,3.4v22.4
		h-6.4V345.7"/>
	<path d="M464.6,372.6c1.1,0,2,0.4,2.9,1.2c0.8,0.8,1.2,1.8,1.2,2.9c0,1.2-0.4,2.1-1.2,2.9c-0.8,0.8-1.8,1.2-2.9,1.2
		c-0.6,0-1.1-0.1-1.6-0.3c-0.5-0.2-0.9-0.5-1.3-0.9c-0.4-0.4-0.7-0.8-0.9-1.3c-0.2-0.5-0.3-1.1-0.3-1.6c0-1.1,0.4-2.1,1.2-2.9
		C462.4,373,463.4,372.6,464.6,372.6"/>
</g>
</svg>
