<?xml version="1.0" encoding="UTF-8" standalone="no"?>
<svg
   xmlns:dc="http://purl.org/dc/elements/1.1/"
   xmlns:cc="http://creativecommons.org/ns#"
   xmlns:rdf="http://www.w3.org/1999/02/22-rdf-syntax-ns#"
   xmlns:svg="http://www.w3.org/2000/svg"
   xmlns="http://www.w3.org/2000/svg"
   version="1.1"
   id="svg4201"
   viewBox="0 0 249.41171 93.84451"
   height="26.485006mm"
   width="70.389526mm">
  <defs
     id="defs4203">
    <clipPath
       id="clipPath16"
       clipPathUnits="userSpaceOnUse">
      <path
         id="path18"
         d="m 24.093,760.473 124.209,0 0,50.238 -124.209,0 0,-50.238 z" />
    </clipPath>
  </defs>
  <metadata
     id="metadata4206">
    <rdf:RDF>
      <cc:Work
         rdf:about="">
        <dc:format>image/svg+xml</dc:format>
        <dc:type
           rdf:resource="http://purl.org/dc/dcmitype/StillImage" />
        <dc:title></dc:title>
      </cc:Work>
    </rdf:RDF>
  </metadata>
  <g
     transform="translate(-272.58209,-418.64742)"
     id="layer1">
    <g
       clip-path="url(#clipPath16)"
       id="g14"
       transform="matrix(2.0435677,0,0,-2.0435677,218.92863,2067.4953)">
      <g
         transform="translate(142.0731,779.84019)"
         id="g20">
        <path
           id="path22"
           style="fill:#ffffff;fill-opacity:1;fill-rule:nonzero;stroke:none"
           d="m 0,0 -9.63,-10.499 c -2.663,-3.532 -6.894,-5.815 -11.657,-5.815 l -77.479,0.012 c -8.057,0 -14.588,6.532 -14.588,14.589 0,4.072 1.668,7.754 4.358,10.4 l 10.799,11.752 c 2.635,2.601 6.255,4.207 10.25,4.207 l 77.478,0.103 C -2.412,24.749 4.12,18.217 4.12,10.16 4.12,6.21 2.55,2.627 0,0" />
      </g>
      <g
         transform="translate(142.0731,779.84019)"
         id="g24">
        <path
           id="path26"
           style="fill:none;stroke:#ffffff;stroke-width:4.5170002;stroke-linecap:butt;stroke-linejoin:miter;stroke-miterlimit:3.86400008;stroke-dasharray:none;stroke-opacity:1"
           d="m 0,0 -9.63,-10.499 c -2.663,-3.532 -6.894,-5.815 -11.657,-5.815 l -77.479,0.012 c -8.057,0 -14.588,6.532 -14.588,14.589 0,4.072 1.668,7.754 4.358,10.4 l 10.799,11.752 c 2.635,2.601 6.255,4.207 10.25,4.207 l 77.478,0.103 C -2.412,24.749 4.12,18.217 4.12,10.16 4.12,6.21 2.55,2.627 0,0 Z" />
      </g>
      <g
         transform="translate(142.0513,779.64529)"
         id="g28">
        <path
           id="path30"
           style="fill:#231f20;fill-opacity:1;fill-rule:nonzero;stroke:none"
           d="m 0,0 -9.635,-10.503 c -2.664,-3.534 -6.896,-5.818 -11.661,-5.818 l -77.508,0.014 c -8.06,0 -14.594,6.532 -14.594,14.592 0,4.074 1.669,7.758 4.36,10.406 l 10.803,11.754 c 2.636,2.602 6.257,4.209 10.254,4.209 l 77.507,0.103 C -2.413,24.757 4.12,18.224 4.12,10.163 4.12,6.212 2.55,2.627 0,0" />
      </g>
      <g
         transform="translate(142.0513,779.64529)"
         id="g32">
        <path
           id="path34"
           style="fill:none;stroke:#ffffff;stroke-width:4.79699993;stroke-linecap:butt;stroke-linejoin:miter;stroke-miterlimit:3.86400008;stroke-dasharray:none;stroke-opacity:1"
           d="m 0,0 -9.635,-10.503 c -2.664,-3.534 -6.896,-5.818 -11.661,-5.818 l -77.508,0.014 c -8.06,0 -14.594,6.532 -14.594,14.592 0,4.074 1.669,7.758 4.36,10.406 l 10.803,11.754 c 2.636,2.602 6.257,4.209 10.254,4.209 l 77.507,0.103 C -2.413,24.757 4.12,18.224 4.12,10.163 4.12,6.212 2.55,2.627 0,0 Z" />
      </g>
      <g
         transform="translate(141.9875,779.6033)"
         id="g36">
        <path
           id="path38"
           style="fill:#ed1c24;fill-opacity:1;fill-rule:nonzero;stroke:none"
           d="m 0,0 -9.63,-10.499 c -2.663,-3.532 -6.894,-5.815 -11.657,-5.815 l -77.479,0.013 c -8.057,0 -14.589,6.531 -14.589,14.588 0,4.072 1.668,7.754 4.359,10.4 l 10.799,11.752 c 2.634,2.601 6.255,4.207 10.25,4.207 l 77.478,0.103 C -2.412,24.749 4.12,18.217 4.12,10.16 4.12,6.21 2.55,2.627 0,0" />
      </g>
      <g
         transform="translate(141.9875,779.6033)"
         id="g40">
        <path
           id="path42"
           style="fill:none;stroke:#ed1c24;stroke-width:1.63300002;stroke-linecap:butt;stroke-linejoin:miter;stroke-miterlimit:3.86400008;stroke-dasharray:none;stroke-opacity:1"
           d="m 0,0 -9.63,-10.499 c -2.663,-3.532 -6.894,-5.815 -11.657,-5.815 l -77.479,0.013 c -8.057,0 -14.589,6.531 -14.589,14.588 0,4.072 1.668,7.754 4.359,10.4 l 10.799,11.752 c 2.634,2.601 6.255,4.207 10.25,4.207 l 77.478,0.103 C -2.412,24.749 4.12,18.217 4.12,10.16 4.12,6.21 2.55,2.627 0,0 Z" />
      </g>
      <g
         transform="translate(54.040207,775.07201)"
         id="g44">
        <path
           id="path46"
           style="fill:#ffffff;fill-opacity:1;fill-rule:nonzero;stroke:none"
           d="m 0,0 c -8.057,0 -14.589,6.531 -14.589,14.588 0,8.057 6.532,14.589 14.589,14.589 l 77.478,0.103 c 8.057,0 14.59,-6.531 14.59,-14.589 0,-8.056 -6.533,-14.588 -14.59,-14.588 L 0,0 Z" />
      </g>
      <g
         transform="translate(54.040207,775.07201)"
         id="g48">
        <path
           id="path50"
           style="fill:none;stroke:#ed1c24;stroke-width:1.63300002;stroke-linecap:butt;stroke-linejoin:miter;stroke-miterlimit:3.86400008;stroke-dasharray:none;stroke-opacity:1"
           d="m 0,0 c -8.057,0 -14.589,6.531 -14.589,14.588 0,8.057 6.532,14.589 14.589,14.589 l 77.478,0.103 c 8.057,0 14.59,-6.531 14.59,-14.589 0,-8.056 -6.533,-14.588 -14.59,-14.588 L 0,0 Z" />
      </g>
      <g
         transform="translate(72.190308,786.88319)"
         id="g52">
        <path
           id="path54"
           style="fill:#ed1c24;fill-opacity:1;fill-rule:evenodd;stroke:none"
           d="M 0,0 -2.925,0 -1.492,5.056 0,0 Z M 54.041,5.067 C 53.789,4.29 53.655,3.432 53.655,2.504 c 0,-4.724 2.916,-7.423 7.279,-7.423 4.114,0 7.301,2.66 7.301,7.385 0,0.892 -0.139,1.779 -0.42,2.611 l -4.746,-0.01 c 0.423,-0.726 0.608,-1.679 0.608,-2.601 0,-2.296 -0.773,-3.992 -2.743,-3.992 -2.182,0 -2.722,2.218 -2.722,3.992 0,0.887 0.158,1.859 0.582,2.603 L 54.041,5.067 Z m -6.095,-9.868 4.632,0 0,9.868 -4.632,0 0,-9.868 z m -14.061,9.868 0,-9.8 4.379,0 0,5.454 4.139,0 0,-5.454 4.379,0 0,9.8 -4.379,0 0,-0.476 -4.139,0 0,0.476 -4.379,0 z m -5.503,0 c 0.14,-0.292 0.23,-0.632 0.266,-1.015 l 4.322,0 c -0.036,0.353 -0.092,0.692 -0.168,1.017 l -4.42,-0.002 z m -8.934,0 C 19.193,4.269 19.055,3.39 19.055,2.434 c 0,-4.509 2.779,-7.322 7.372,-7.322 3.668,0 6.235,2.157 6.64,5.741 l -4.381,0 c -0.174,-1.329 -0.869,-2.351 -2.335,-2.351 -2.317,0 -2.742,1.832 -2.742,3.777 0,1.192 0.192,2.125 0.545,2.793 L 19.448,5.067 Z m -13.464,0 c 0.176,-5.175 8.105,-3.764 8.105,-5.872 0,-0.665 -0.764,-1.037 -1.92,-1.037 -0.45,0 -0.939,0.119 -1.312,0.353 -0.391,0.234 -0.666,0.606 -0.764,1.115 l -4.425,0 c 0.098,-2.543 2.526,-4.713 6.247,-4.713 3.878,0 6.6,1.584 6.6,4.85 0,4.52 -6.314,4.031 -7.798,5.304 l -4.733,0 z m -11.314,0 -3.542,-9.868 4.534,0 0.53,1.861 4.613,0 0.55,-1.861 4.612,0 -3.542,9.868 -7.755,0 z m -20.437,0 0,-9.835 4.162,0 0,4.781 -0.098,2.195 -0.197,2.077 0.039,0 2.572,-9.053 3.219,0 2.572,9.053 0.039,0 -0.236,-2.548 -0.058,-2.194 0,-4.311 4.161,0 0,9.835 -6.805,0 -1.282,-4.525 -1.283,4.525 -6.805,0 z" />
      </g>
      <g
         transform="translate(130.9847,791.9505)"
         id="g56">
        <path
           id="path58"
           style="fill:#ed1c24;fill-opacity:1;fill-rule:evenodd;stroke:none"
           d="M 0,0 C 0.414,0.727 1.081,1.235 2.102,1.235 3.128,1.264 3.833,0.755 4.274,-0.003 L 9.02,0 C 8.146,2.588 5.894,4.628 2.14,4.628 -1.263,4.628 -3.82,2.872 -4.754,0 L 0,0 Z m -6.216,4.242 -4.632,0 0,-4.242 4.632,0 0,4.242 z m -5.797,0.032 -4.379,0 0,-4.274 4.379,0 0,4.274 z m -8.517,0 -4.379,0 0,-4.274 4.379,0 0,4.274 z M -34.641,0 c 0.441,0.837 1.135,1.259 2.023,1.259 1.05,0 1.819,-0.448 2.205,-1.26 L -25.992,0 c -0.688,2.946 -2.994,4.649 -6.819,4.649 -3.053,0 -5.592,-1.73 -6.535,-4.656 L -34.641,0 Z m -13.437,0 c -0.198,0.17 -0.31,0.371 -0.31,0.619 0,0.509 0.451,0.802 1.469,0.802 0.451,0 0.862,-0.078 1.195,-0.254 0.333,-0.176 0.587,-0.47 0.666,-0.959 l 4.386,0 c -0.333,2.465 -2.114,4.459 -6.032,4.459 -3.524,0 -6.11,-1.506 -6.11,-4.497 l 0.003,-0.178 4.733,0.008 z m -8.291,0 -1.523,4.242 -4.71,0 -1.523,-4.242 7.756,0 z m -12.018,0 0,4.274 -5.594,0 -1.211,-4.274 6.805,0 z m -9.369,0 -1.211,4.274 -5.594,0 0,-4.274 6.805,0 z" />
      </g>
    </g>
  </g>
</svg>
